<svg xmlns="http://www.w3.org/2000/svg" viewBox="0 0 500 100" width="500" height="100">

  <!-- Emblem group (icon) -->
  <g transform="matrix(0.05678,0,0,-0.05678,-54.62,178.34)">
    <path fill="#ffffff" d="M1809.46 1989.67C1707.13 1986.8 1604.47 1996.64 1504.54 2018.94 1464.36 2085.95 1430.23 2156.63 1404.29 2230.37 1369.98 2326.73 1347.65 2427.32 1337.98 2529.17 1389.31 2588.1 1446 2642.42 1508.13 2689.88 1589.15 2752.27 1677.91 2804.59 1771.77 2845.25 1843.7 2814.64 1912.88 2777.52 1977.22 2733.08 2061.61 2675.28 2138.81 2607.03 2206.48 2530.3 2199.61 2453.19 2185.74 2376.67 2163.87 2302.37 2134.93 2203.54 2093.66 2108.35 2041.26 2019.66 1965.2 2002.19 1887.52 1991.58 1809.46 1989.67ZM2520.45 2248.41C2500.23 2232.64 2479.87 2216.99 2458.36 2202.99L2426.47 2181.45C2415.83 2174.29 2404.58 2168.1 2393.66 2161.37 2330.09 2123.16 2263.02 2090.71 2193.47 2064.87 2219.3 2134.19 2239.4 2205.01 2253.28 2276.48 2274.72 2386.06 2280.21 2497.29 2273.08 2605.95 2266.21 2714.73 2243.61 2821.09 2209.54 2921.76 2175.43 3022.49 2128.83 3117.57 2071.2 3203.89 2119.7 3112.73 2155.9 3015.17 2179.32 2914.66 2196.58 2840.59 2207.39 2764.88 2210.57 2688.86 2153.17 2734.36 2092.65 2775.02 2029.6 2810.02 1932.88 2864.18 1829.48 2903.54 1724.75 2930.43 1619.94 2957.48 1512.72 2969.67 1407.1 2968.55 1393.89 2968.3 1380.76 2968.55 1367.59 2967.84L1328.22 2965.32C1302.05 2964.05 1276.02 2960.86 1250.19 2957.4 1198.52 2950.23 1147.63 2939.79 1097.93 2926.22 1148.49 2934.69 1199.58 2939.93 1250.79 2941.9 1276.39 2942.77 1302.04 2943.36 1327.64 2942.06L1366.06 2940.74C1378.85 2940.18 1391.6 2938.65 1404.37 2937.65 1478.05 2931.19 1551.18 2917.99 1622.42 2898.03 1561.41 2857.49 1503.92 2812.62 1451.15 2763.48 1369.73 2688.21 1300.35 2602.03 1242.4 2510.73 1184.29 2419.4 1139.56 2321.19 1107.99 2220.39 1104.16 2207.74 1099.85 2195.32 1096.47 2182.59L1086.69 2144.35C1079.83 2119.09 1074.8 2093.33 1070.12 2067.69 1060.97 2016.33 1055.19 1964.7 1052.74 1913.25 1060.3 1963.94 1071.1 2014.15 1085.04 2063.47 1092.13 2088.1 1099.49 2112.67 1108.64 2136.62L1121.76 2172.74C1126.25 2184.75 1131.64 2196.4 1136.54 2208.23 1165.45 2276.33 1200.61 2341.79 1241.61 2403.39 1261.29 2332.83 1286.25 2264.3 1316.69 2198.92 1363.13 2098.21 1423.66 2005.59 1492.59 1922.25 1561.52 1838.75 1641.13 1765.87 1727.25 1704.7 1738.09 1697.14 1748.56 1689.19 1759.64 1682.05L1792.99 1660.94C1814.91 1646.59 1837.86 1633.87 1860.79 1621.48 1906.82 1596.92 1954.15 1575.46 2002.35 1557.24 1956.46 1580.09 1912.03 1605.87 1869.43 1634.37 1848.2 1648.73 1827.07 1663.31 1807.12 1679.41L1776.82 1703.08C1766.78 1711.02 1757.38 1719.77 1747.62 1728.09 1691.84 1776.59 1640.45 1830.21 1594.56 1888.18 1667.79 1885.11 1740.71 1887.89 1812.33 1896.64 1922.53 1909.73 2029.42 1938.7 2130.04 1978.58 2230.83 2018.37 2324.77 2071.7 2409.63 2134.76 2420.16 2142.77 2430.99 2150.23 2441.18 2158.63L2471.58 2183.84C2492.03 2200.24 2511.19 2218.23 2530.06 2236.23 2567.66 2272.46 2602.69 2310.89 2634.93 2351.15 2599 2314.52 2560.74 2280.18 2520.45 2248.41"/>
    <path fill="#00ccff" d="M1764.76 2346.04C1745.7 2346.04 1730.24 2361.49 1730.24 2380.56 1730.24 2399.62 1745.7 2415.08 1764.76 2415.08 1783.82 2415.08 1799.28 2399.62 1799.28 2380.56 1799.28 2361.49 1783.82 2346.04 1764.76 2346.04ZM1764.76 2668.25C1717.88 2668.25 1673.65 2656.95 1634.54 2637.06 1677.09 2620.17 1707.22 2578.72 1707.22 2530.15 1707.22 2466.6 1655.7 2415.08 1592.14 2415.08 1549.41 2415.08 1512.19 2438.43 1492.34 2473.02 1482.49 2443.99 1477.07 2412.92 1477.07 2380.56 1477.07 2221.68 1605.87 2092.87 1764.76 2092.87 1923.65 2092.87 2052.45 2221.68 2052.45 2380.56 2052.45 2539.44 1923.65 2668.25 1764.76 2668.25"/>
  </g>

  <!-- VIGILINK wordmark -->
  <g transform="matrix(0.14801,0,0,-0.14801,22.12,198.92)">
    <path fill="#ffffff" d="M804.82 914.57H696.598L560.191 1289.97H657.707L736.617 1054.36C744.508 1030.68 752.965 1001.93 752.965 1001.93H753.527C753.527 1001.93 762.547 1031.25 769.875 1054.36L847.098 1289.97H944.609L804.82 914.57"/>
    <path fill="#ffffff" d="M1096.2 914.57H1003.19V1289.97H1096.2V914.57"/>
    <path fill="#ffffff" d="M1423.1 1177.24V1206.54C1423.1 1210.49 1421.41 1212.18 1417.47 1212.18H1301.92C1297.97 1212.18 1296.28 1210.49 1296.28 1206.54V998.551C1296.28 994.609 1297.97 992.922 1301.92 992.922H1420.28C1424.23 992.922 1425.92 994.609 1425.92 998.551V1045.9H1358.84V1119.18H1514.42V985.031C1514.42 963.051 1508.21 946.129 1496.38 934.301 1483.98 921.34 1464.81 914.57 1441.7 914.57H1275.99C1250.62 914.57 1230.89 921.891 1218.49 936.551 1208.35 948.391 1203.27 964.172 1203.27 985.031V1219.51C1203.27 1240.93 1209.47 1257.28 1220.19 1269.11 1232.58 1282.64 1251.75 1289.97 1275.99 1289.97H1441.7C1464.25 1289.97 1482.29 1283.77 1494.69 1271.93 1507.09 1260.1 1514.42 1242.62 1514.42 1219.51V1177.24H1423.1"/>
    <path fill="#ffffff" d="M1704.9 914.57H1611.9V1289.97H1704.9V914.57"/>
    <path fill="#ffffff" d="M2082.53 914.57H1814.79V1289.97H1907.79V992.352H2082.53V914.57"/>
    <path fill="#ffffff" d="M2256.11 914.57H2163.11V1289.97H2256.11V914.57"/>
    <path fill="#ffffff" d="M2598.79 914.57 2481.55 1093.82C2464.08 1120.87 2454.49 1134.96 2454.49 1134.96H2453.93C2453.93 1134.96 2455.62 1093.82 2455.62 1076.9V914.57H2366V1289.97H2460.69L2570.61 1116.92C2589.21 1087.62 2599.36 1071.84 2599.36 1071.84H2600.48C2600.48 1071.84 2598.79 1114.1 2598.79 1133.84V1289.97H2688.41V914.57H2598.79"/>
    <path fill="#ffffff" d="M3013.05 914.57 2927.94 1046.46 2880.59 987.289V914.57H2787.59V1289.97H2880.59V1118.05H2881.72C2886.79 1126.5 2902.57 1150.74 2929.06 1184.56L3011.36 1289.97H3120.71L2991.07 1125.95 3127.47 914.57H3013.05"/>
  </g>

  <!-- SECURITY GROUP tagline -->
  <g transform="matrix(0.17583,0,0,-0.17583,-37.37,207.95)">
    <path fill="#00ccff" d="M868.02 743.172C882.645 740.352 896.766 739.691 896.766 720.238V698.809C896.766 692.32 894.938 687.34 891.445 683.859 887.793 680.031 882.977 678.039 876.156 678.039H831.129C823.652 678.039 817.832 680.199 814.18 684.52 811.188 688.012 809.695 692.66 809.695 698.809V711.102H836.613V702.461C836.613 701.301 837.109 700.801 838.273 700.801H867.852C869.016 700.801 869.512 701.301 869.512 702.461V716.59C869.512 717.75 869.016 718.582 867.852 718.75L839.605 724.559C824.98 727.559 810.855 727.891 810.855 747.5V767.93C810.855 774.25 812.684 779.059 815.84 782.559 819.496 786.539 825.148 788.699 832.293 788.699H875.16C881.813 788.699 887.125 786.871 890.781 783.391 894.441 779.898 896.598 774.75 896.598 767.93V755.801H870.012V764.281C870.012 765.441 869.512 765.941 868.352 765.941H839.605C838.438 765.941 837.941 765.441 837.941 764.281V750.82C837.941 749.66 838.438 748.832 839.605 748.66L868.02 743.172"/>
    <path fill="#00ccff" d="M1058.01 678.039H975.758V788.699H1057.85V765.77H1003.18V745.328H1052.7V722.398H1003.18V700.969H1058.01V678.039"/>
    <path fill="#00ccff" d="M1224.58 712.762V698.809C1224.58 692.32 1222.75 687.34 1219.26 683.859 1215.61 680.031 1209.96 678.039 1203.15 678.039H1157.61C1150.14 678.039 1144.32 680.199 1140.67 684.52 1137.67 688.012 1136.18 692.66 1136.18 698.809V767.93C1136.18 774.25 1138 779.059 1141.16 782.559 1144.82 786.539 1150.47 788.699 1157.61 788.699H1203.15C1209.79 788.699 1215.11 786.871 1218.77 783.391 1222.42 779.898 1224.58 774.75 1224.58 767.93V753.809H1197.66V764.109C1197.66 765.27 1197.16 765.77 1196 765.77H1165.26C1164.09 765.77 1163.6 765.27 1163.6 764.109V702.629C1163.6 701.461 1164.09 700.969 1165.26 700.969H1196C1197.16 700.969 1197.66 701.461 1197.66 702.629V712.762H1224.58"/>
    <path fill="#00ccff" d="M1391.81 698.809C1391.81 692.32 1389.98 687.34 1386.5 683.859 1382.84 680.031 1377.19 678.039 1370.38 678.039H1325.01C1317.54 678.039 1311.72 680.199 1308.06 684.52 1305.07 688.012 1303.58 692.66 1303.58 698.809V788.699H1330.99V702.289C1330.99 701.129 1331.49 700.629 1332.65 700.629H1362.73C1363.89 700.629 1364.39 701.129 1364.39 702.289V788.699H1391.81V698.809"/>
    <path fill="#00ccff" d="M1536.94 764.109C1536.94 765.27 1536.44 765.77 1535.28 765.77H1499.88V739.852H1535.28C1536.44 739.852 1536.94 740.352 1536.94 741.512V764.109ZM1569.01 678.039H1539.27L1520.32 716.922H1499.88V678.039H1472.47V788.699H1542.76C1549.41 788.699 1554.72 786.871 1558.38 783.391 1562.03 779.898 1564.19 774.75 1564.19 767.93V736.871C1564.19 727.719 1558.21 719.75 1549.41 717.59L1569.01 678.039"/>
    <path fill="#00ccff" d="M1672.94 678.039H1645.51V788.699H1672.94V678.039"/>
    <path fill="#00ccff" d="M1840.47 765.77H1808.23V678.039H1780.82V765.77H1748.58V788.699H1840.47V765.77"/>
    <path fill="#00ccff" d="M1973.97 715.25V678.039H1946.39V715.25L1908.67 788.699H1936.58L1957.35 745.5C1958.68 742.68 1960.18 738.859 1960.18 738.859H1960.51C1960.51 738.859 1962.01 742.68 1963.34 745.5L1984.11 788.699H2012.19L1973.97 715.25"/>
    <path fill="#00ccff" d="M2261.38 755.469V764.109C2261.38 765.27 2260.89 765.77 2259.72 765.77H2225.66C2224.49 765.77 2224 765.27 2224 764.109V702.789C2224 701.629 2224.49 701.129 2225.66 701.129H2260.55C2261.72 701.129 2262.21 701.629 2262.21 702.789V716.762H2242.44V738.359H2288.3V698.809C2288.3 692.32 2286.48 687.34 2282.98 683.859 2279.33 680.031 2273.68 678.039 2266.87 678.039H2218.01C2210.54 678.039 2204.72 680.199 2201.07 684.52 2198.07 688.012 2196.58 692.66 2196.58 698.809V767.93C2196.58 774.25 2198.4 779.059 2201.56 782.559 2205.22 786.539 2210.87 788.699 2218.01 788.699H2266.87C2273.51 788.699 2278.83 786.871 2282.49 783.391 2286.14 779.898 2288.3 774.75 2288.3 767.93V755.469H2261.38"/>
    <path fill="#00ccff" d="M2433.43 764.109C2433.43 765.27 2432.94 765.77 2431.77 765.77H2396.38V739.852H2431.77C2432.94 739.852 2433.43 740.352 2433.43 741.512V764.109ZM2465.5 678.039H2435.76L2416.82 716.922H2396.38V678.039H2368.96V788.699H2439.25C2445.9 788.699 2451.22 786.871 2454.87 783.391 2458.53 779.898 2460.68 774.75 2460.68 767.93V736.871C2460.68 727.719 2454.7 719.75 2445.9 717.59L2465.5 678.039"/>
    <path fill="#00ccff" d="M2604.65 764.109C2604.65 765.27 2604.16 765.77 2602.99 765.77H2569.43C2568.26 765.77 2567.76 765.27 2567.76 764.109V702.629C2567.76 701.461 2568.26 700.969 2569.43 700.969H2602.99C2604.16 700.969 2604.65 701.461 2604.65 702.629V764.109ZM2632.07 698.809C2632.07 692.32 2630.25 687.34 2626.75 683.859 2623.1 680.031 2617.45 678.039 2610.64 678.039H2561.78C2554.31 678.039 2548.49 680.199 2544.84 684.52 2541.84 688.012 2540.35 692.66 2540.35 698.809V767.93C2540.35 774.25 2542.17 779.059 2545.33 782.559 2548.99 786.539 2554.64 788.699 2561.78 788.699H2610.64C2617.28 788.699 2622.6 786.871 2626.26 783.391 2629.91 779.898 2632.07 774.75 2632.07 767.93V698.809"/>
    <path fill="#00ccff" d="M2800.14 698.809C2800.14 692.32 2798.31 687.34 2794.82 683.859 2791.16 680.031 2785.51 678.039 2778.7 678.039H2733.34C2725.86 678.039 2720.05 680.199 2716.39 684.52 2713.39 688.012 2711.9 692.66 2711.9 698.809V788.699H2739.32V702.289C2739.32 701.129 2739.82 700.629 2740.98 700.629H2771.06C2772.22 700.629 2772.72 701.129 2772.72 702.289V788.699H2800.14V698.809"/>
    <path fill="#00ccff" d="M2943.44 764.109C2943.44 765.27 2942.94 765.77 2941.78 765.77H2908.21V739.852H2941.78C2942.94 739.852 2943.44 740.352 2943.44 741.512V764.109ZM2908.21 716.922V678.039H2880.79V788.699H2949.42C2956.07 788.699 2961.38 786.871 2965.04 783.391 2968.7 779.898 2970.86 774.75 2970.86 767.93V737.699C2970.86 731.211 2969.03 726.23 2965.54 722.73 2961.88 718.922 2956.23 716.922 2949.42 716.922H2908.21"/>
  </g>

</svg>